<mxfile host="drawio-plugin" modified="2021-03-23T10:44:46.327Z" agent="5.0 (Windows NT 6.2; Win64; x64) AppleWebKit/537.36 (KHTML, like Gecko) Chrome/81.0.4044.113 Safari/537.36" etag="VFxqYbwkKeD1lEn__dq6" version="13.7.9" type="embed"><diagram id="C5RBs43oDa-KdzZeNtuy" name="Page-1"><mxGraphModel dx="2476" dy="1076" grid="1" gridSize="10" guides="1" tooltips="1" connect="1" arrows="1" fold="1" page="1" pageScale="1" pageWidth="827" pageHeight="1169" math="0" shadow="0"><root><mxCell id="WIyWlLk6GJQsqaUBKTNV-0"/><mxCell id="WIyWlLk6GJQsqaUBKTNV-1" parent="WIyWlLk6GJQsqaUBKTNV-0"/><mxCell id="zkfFHV4jXpPFQw0GAbJ--0" value="Ball" style="swimlane;fontStyle=2;align=center;verticalAlign=top;childLayout=stackLayout;horizontal=1;startSize=26;horizontalStack=0;resizeParent=1;resizeLast=0;collapsible=1;marginBottom=0;rounded=0;shadow=0;strokeWidth=1;" parent="WIyWlLk6GJQsqaUBKTNV-1" vertex="1"><mxGeometry x="70" y="230" width="160" height="138" as="geometry"><mxRectangle x="230" y="140" width="160" height="26" as="alternateBounds"/></mxGeometry></mxCell><mxCell id="zkfFHV4jXpPFQw0GAbJ--1" value="- positionX: int" style="text;align=left;verticalAlign=top;spacingLeft=4;spacingRight=4;overflow=hidden;rotatable=0;points=[[0,0.5],[1,0.5]];portConstraint=eastwest;" parent="zkfFHV4jXpPFQw0GAbJ--0" vertex="1"><mxGeometry y="26" width="160" height="26" as="geometry"/></mxCell><mxCell id="n6QPjvAMq9Di65PWkLew-15" value="- farbe: int (hex)" style="text;align=left;verticalAlign=top;spacingLeft=4;spacingRight=4;overflow=hidden;rotatable=0;points=[[0,0.5],[1,0.5]];portConstraint=eastwest;" parent="zkfFHV4jXpPFQw0GAbJ--0" vertex="1"><mxGeometry y="52" width="160" height="26" as="geometry"/></mxCell><mxCell id="zkfFHV4jXpPFQw0GAbJ--4" value="" style="line;html=1;strokeWidth=1;align=left;verticalAlign=middle;spacingTop=-1;spacingLeft=3;spacingRight=3;rotatable=0;labelPosition=right;points=[];portConstraint=eastwest;" parent="zkfFHV4jXpPFQw0GAbJ--0" vertex="1"><mxGeometry y="78" width="160" height="8" as="geometry"/></mxCell><mxCell id="n6QPjvAMq9Di65PWkLew-0" value="Spieler" style="swimlane;fontStyle=2;align=center;verticalAlign=top;childLayout=stackLayout;horizontal=1;startSize=26;horizontalStack=0;resizeParent=1;resizeLast=0;collapsible=1;marginBottom=0;rounded=0;shadow=0;strokeWidth=1;" parent="WIyWlLk6GJQsqaUBKTNV-1" vertex="1"><mxGeometry x="270" y="230" width="160" height="138" as="geometry"><mxRectangle x="230" y="140" width="160" height="26" as="alternateBounds"/></mxGeometry></mxCell><mxCell id="n6QPjvAMq9Di65PWkLew-2" value="" style="line;html=1;strokeWidth=1;align=left;verticalAlign=middle;spacingTop=-1;spacingLeft=3;spacingRight=3;rotatable=0;labelPosition=right;points=[];portConstraint=eastwest;" parent="n6QPjvAMq9Di65PWkLew-0" vertex="1"><mxGeometry y="26" width="160" height="8" as="geometry"/></mxCell><mxCell id="n6QPjvAMq9Di65PWkLew-3" value="Bot" style="swimlane;fontStyle=2;align=center;verticalAlign=top;childLayout=stackLayout;horizontal=1;startSize=26;horizontalStack=0;resizeParent=1;resizeLast=0;collapsible=1;marginBottom=0;rounded=0;shadow=0;strokeWidth=1;" parent="WIyWlLk6GJQsqaUBKTNV-1" vertex="1"><mxGeometry x="480" y="230" width="240" height="138" as="geometry"><mxRectangle x="230" y="140" width="160" height="26" as="alternateBounds"/></mxGeometry></mxCell><mxCell id="n6QPjvAMq9Di65PWkLew-5" value="" style="line;html=1;strokeWidth=1;align=left;verticalAlign=middle;spacingTop=-1;spacingLeft=3;spacingRight=3;rotatable=0;labelPosition=right;points=[];portConstraint=eastwest;" parent="n6QPjvAMq9Di65PWkLew-3" vertex="1"><mxGeometry y="26" width="240" height="8" as="geometry"/></mxCell><mxCell id="n6QPjvAMq9Di65PWkLew-6" value="GameWindow" style="swimlane;fontStyle=2;align=center;verticalAlign=top;childLayout=stackLayout;horizontal=1;startSize=26;horizontalStack=0;resizeParent=1;resizeLast=0;collapsible=1;marginBottom=0;rounded=0;shadow=0;strokeWidth=1;" parent="WIyWlLk6GJQsqaUBKTNV-1" vertex="1"><mxGeometry x="50" y="390" width="360" height="390" as="geometry"><mxRectangle x="230" y="140" width="160" height="26" as="alternateBounds"/></mxGeometry></mxCell><mxCell id="n6QPjvAMq9Di65PWkLew-7" value="- punkteSpieler1: int" style="text;align=left;verticalAlign=top;spacingLeft=4;spacingRight=4;overflow=hidden;rotatable=0;points=[[0,0.5],[1,0.5]];portConstraint=eastwest;" parent="n6QPjvAMq9Di65PWkLew-6" vertex="1"><mxGeometry y="26" width="360" height="26" as="geometry"/></mxCell><mxCell id="n6QPjvAMq9Di65PWkLew-16" value="- punkteSpieler2: int" style="text;align=left;verticalAlign=top;spacingLeft=4;spacingRight=4;overflow=hidden;rotatable=0;points=[[0,0.5],[1,0.5]];portConstraint=eastwest;" parent="n6QPjvAMq9Di65PWkLew-6" vertex="1"><mxGeometry y="52" width="360" height="26" as="geometry"/></mxCell><mxCell id="n6QPjvAMq9Di65PWkLew-8" value="" style="line;html=1;strokeWidth=1;align=left;verticalAlign=middle;spacingTop=-1;spacingLeft=3;spacingRight=3;rotatable=0;labelPosition=right;points=[];portConstraint=eastwest;" parent="n6QPjvAMq9Di65PWkLew-6" vertex="1"><mxGeometry y="78" width="360" height="8" as="geometry"/></mxCell><mxCell id="4j-1wQ6qazDUJGKftkid-10" value="- setPanel(double[] resolution): JPanel" style="text;align=left;verticalAlign=top;spacingLeft=4;spacingRight=4;overflow=hidden;rotatable=0;points=[[0,0.5],[1,0.5]];portConstraint=eastwest;" parent="n6QPjvAMq9Di65PWkLew-6" vertex="1"><mxGeometry y="86" width="360" height="26" as="geometry"/></mxCell><mxCell id="4j-1wQ6qazDUJGKftkid-12" value="- setBall(double[] resolution): JPanel" style="text;align=left;verticalAlign=top;spacingLeft=4;spacingRight=4;overflow=hidden;rotatable=0;points=[[0,0.5],[1,0.5]];portConstraint=eastwest;" parent="n6QPjvAMq9Di65PWkLew-6" vertex="1"><mxGeometry y="112" width="360" height="26" as="geometry"/></mxCell><mxCell id="4j-1wQ6qazDUJGKftkid-21" value="- GetResolution(): double[] " style="text;align=left;verticalAlign=top;spacingLeft=4;spacingRight=4;overflow=hidden;rotatable=0;points=[[0,0.5],[1,0.5]];portConstraint=eastwest;" parent="n6QPjvAMq9Di65PWkLew-6" vertex="1"><mxGeometry y="138" width="360" height="26" as="geometry"/></mxCell><mxCell id="4j-1wQ6qazDUJGKftkid-16" value="- CheckBallConnectsToRightPanel(Rectangle ballBounds): void" style="text;align=left;verticalAlign=top;spacingLeft=4;spacingRight=4;overflow=hidden;rotatable=0;points=[[0,0.5],[1,0.5]];portConstraint=eastwest;" parent="n6QPjvAMq9Di65PWkLew-6" vertex="1"><mxGeometry y="164" width="360" height="26" as="geometry"/></mxCell><mxCell id="4j-1wQ6qazDUJGKftkid-15" value="- CheckBallConnectsToLeftPanel(Rectangle ballBounds): void" style="text;align=left;verticalAlign=top;spacingLeft=4;spacingRight=4;overflow=hidden;rotatable=0;points=[[0,0.5],[1,0.5]];portConstraint=eastwest;" parent="n6QPjvAMq9Di65PWkLew-6" vertex="1"><mxGeometry y="190" width="360" height="26" as="geometry"/></mxCell><mxCell id="4j-1wQ6qazDUJGKftkid-14" value="- CheckBoundsToBorder(Rectangle ballBounds): void" style="text;align=left;verticalAlign=top;spacingLeft=4;spacingRight=4;overflow=hidden;rotatable=0;points=[[0,0.5],[1,0.5]];portConstraint=eastwest;" parent="n6QPjvAMq9Di65PWkLew-6" vertex="1"><mxGeometry y="216" width="360" height="26" as="geometry"/></mxCell><mxCell id="n6QPjvAMq9Di65PWkLew-9" value="InterfaceBewegung" style="swimlane;fontStyle=2;align=center;verticalAlign=top;childLayout=stackLayout;horizontal=1;startSize=26;horizontalStack=0;resizeParent=1;resizeLast=0;collapsible=1;marginBottom=0;rounded=0;shadow=0;strokeWidth=1;" parent="WIyWlLk6GJQsqaUBKTNV-1" vertex="1"><mxGeometry x="270" y="20" width="160" height="138" as="geometry"><mxRectangle x="230" y="140" width="160" height="26" as="alternateBounds"/></mxGeometry></mxCell><mxCell id="n6QPjvAMq9Di65PWkLew-12" value="- positionY: int" style="text;align=left;verticalAlign=top;spacingLeft=4;spacingRight=4;overflow=hidden;rotatable=0;points=[[0,0.5],[1,0.5]];portConstraint=eastwest;" parent="n6QPjvAMq9Di65PWkLew-9" vertex="1"><mxGeometry y="26" width="160" height="26" as="geometry"/></mxCell><mxCell id="n6QPjvAMq9Di65PWkLew-13" value="- geschwindigkeit: int" style="text;align=left;verticalAlign=top;spacingLeft=4;spacingRight=4;overflow=hidden;rotatable=0;points=[[0,0.5],[1,0.5]];portConstraint=eastwest;" parent="n6QPjvAMq9Di65PWkLew-9" vertex="1"><mxGeometry y="52" width="160" height="26" as="geometry"/></mxCell><mxCell id="n6QPjvAMq9Di65PWkLew-11" value="" style="line;html=1;strokeWidth=1;align=left;verticalAlign=middle;spacingTop=-1;spacingLeft=3;spacingRight=3;rotatable=0;labelPosition=right;points=[];portConstraint=eastwest;" parent="n6QPjvAMq9Di65PWkLew-9" vertex="1"><mxGeometry y="78" width="160" height="8" as="geometry"/></mxCell><mxCell id="4j-1wQ6qazDUJGKftkid-0" value="- movement(): void" style="text;align=left;verticalAlign=top;spacingLeft=4;spacingRight=4;overflow=hidden;rotatable=0;points=[[0,0.5],[1,0.5]];portConstraint=eastwest;" parent="n6QPjvAMq9Di65PWkLew-9" vertex="1"><mxGeometry y="86" width="160" height="26" as="geometry"/></mxCell><mxCell id="n6QPjvAMq9Di65PWkLew-18" value="" style="endArrow=block;dashed=1;endFill=0;endSize=12;html=1;entryX=0.25;entryY=1;entryDx=0;entryDy=0;exitX=0.5;exitY=0;exitDx=0;exitDy=0;" parent="WIyWlLk6GJQsqaUBKTNV-1" source="zkfFHV4jXpPFQw0GAbJ--0" target="n6QPjvAMq9Di65PWkLew-9" edge="1"><mxGeometry width="160" relative="1" as="geometry"><mxPoint x="130" y="170" as="sourcePoint"/><mxPoint x="290" y="170" as="targetPoint"/></mxGeometry></mxCell><mxCell id="n6QPjvAMq9Di65PWkLew-20" value="" style="endArrow=block;dashed=1;endFill=0;endSize=12;html=1;entryX=0.5;entryY=1;entryDx=0;entryDy=0;exitX=0.5;exitY=0;exitDx=0;exitDy=0;" parent="WIyWlLk6GJQsqaUBKTNV-1" source="n6QPjvAMq9Di65PWkLew-0" target="n6QPjvAMq9Di65PWkLew-9" edge="1"><mxGeometry width="160" relative="1" as="geometry"><mxPoint x="330" y="290" as="sourcePoint"/><mxPoint x="490" y="290" as="targetPoint"/></mxGeometry></mxCell><mxCell id="n6QPjvAMq9Di65PWkLew-21" value="" style="endArrow=block;dashed=1;endFill=0;endSize=12;html=1;entryX=0.75;entryY=1;entryDx=0;entryDy=0;exitX=0.5;exitY=0;exitDx=0;exitDy=0;" parent="WIyWlLk6GJQsqaUBKTNV-1" source="n6QPjvAMq9Di65PWkLew-3" target="n6QPjvAMq9Di65PWkLew-9" edge="1"><mxGeometry width="160" relative="1" as="geometry"><mxPoint x="330" y="290" as="sourcePoint"/><mxPoint x="490" y="290" as="targetPoint"/></mxGeometry></mxCell><mxCell id="4j-1wQ6qazDUJGKftkid-4" value="PowerUps" style="swimlane;fontStyle=2;align=center;verticalAlign=top;childLayout=stackLayout;horizontal=1;startSize=26;horizontalStack=0;resizeParent=1;resizeLast=0;collapsible=1;marginBottom=0;rounded=0;shadow=0;strokeWidth=1;" parent="WIyWlLk6GJQsqaUBKTNV-1" vertex="1"><mxGeometry x="970" y="650" width="160" height="138" as="geometry"><mxRectangle x="230" y="140" width="160" height="26" as="alternateBounds"/></mxGeometry></mxCell><mxCell id="4j-1wQ6qazDUJGKftkid-5" value="" style="line;html=1;strokeWidth=1;align=left;verticalAlign=middle;spacingTop=-1;spacingLeft=3;spacingRight=3;rotatable=0;labelPosition=right;points=[];portConstraint=eastwest;" parent="4j-1wQ6qazDUJGKftkid-4" vertex="1"><mxGeometry y="26" width="160" height="8" as="geometry"/></mxCell><mxCell id="4j-1wQ6qazDUJGKftkid-7" value="- positionX: int" style="text;align=left;verticalAlign=top;spacingLeft=4;spacingRight=4;overflow=hidden;rotatable=0;points=[[0,0.5],[1,0.5]];portConstraint=eastwest;" parent="4j-1wQ6qazDUJGKftkid-4" vertex="1"><mxGeometry y="34" width="160" height="26" as="geometry"/></mxCell><mxCell id="4j-1wQ6qazDUJGKftkid-8" value="- positionY: int" style="text;align=left;verticalAlign=top;spacingLeft=4;spacingRight=4;overflow=hidden;rotatable=0;points=[[0,0.5],[1,0.5]];portConstraint=eastwest;" parent="4j-1wQ6qazDUJGKftkid-4" vertex="1"><mxGeometry y="60" width="160" height="26" as="geometry"/></mxCell><mxCell id="4j-1wQ6qazDUJGKftkid-9" value="" style="line;html=1;strokeWidth=1;align=left;verticalAlign=middle;spacingTop=-1;spacingLeft=3;spacingRight=3;rotatable=0;labelPosition=right;points=[];portConstraint=eastwest;" parent="4j-1wQ6qazDUJGKftkid-4" vertex="1"><mxGeometry y="86" width="160" height="8" as="geometry"/></mxCell><mxCell id="4j-1wQ6qazDUJGKftkid-6" value="- setPowerUp(): void" style="text;align=left;verticalAlign=top;spacingLeft=4;spacingRight=4;overflow=hidden;rotatable=0;points=[[0,0.5],[1,0.5]];portConstraint=eastwest;" parent="4j-1wQ6qazDUJGKftkid-4" vertex="1"><mxGeometry y="94" width="160" height="26" as="geometry"/></mxCell><mxCell id="4j-1wQ6qazDUJGKftkid-28" value="Movement" style="swimlane;fontStyle=2;align=center;verticalAlign=top;childLayout=stackLayout;horizontal=1;startSize=26;horizontalStack=0;resizeParent=1;resizeLast=0;collapsible=1;marginBottom=0;rounded=0;shadow=0;strokeWidth=1;" parent="WIyWlLk6GJQsqaUBKTNV-1" vertex="1"><mxGeometry x="-20" y="20" width="240" height="138" as="geometry"><mxRectangle x="230" y="140" width="160" height="26" as="alternateBounds"/></mxGeometry></mxCell><mxCell id="4j-1wQ6qazDUJGKftkid-29" value="" style="line;html=1;strokeWidth=1;align=left;verticalAlign=middle;spacingTop=-1;spacingLeft=3;spacingRight=3;rotatable=0;labelPosition=right;points=[];portConstraint=eastwest;" parent="4j-1wQ6qazDUJGKftkid-28" vertex="1"><mxGeometry y="26" width="240" height="8" as="geometry"/></mxCell><mxCell id="4j-1wQ6qazDUJGKftkid-13" value="- MoveBall(): void" style="text;align=left;verticalAlign=top;spacingLeft=4;spacingRight=4;overflow=hidden;rotatable=0;points=[[0,0.5],[1,0.5]];portConstraint=eastwest;" parent="4j-1wQ6qazDUJGKftkid-28" vertex="1"><mxGeometry y="34" width="240" height="26" as="geometry"/></mxCell><mxCell id="4j-1wQ6qazDUJGKftkid-27" value="- BotToBall(Rectangle ballBounds): void" style="text;align=left;verticalAlign=top;spacingLeft=4;spacingRight=4;overflow=hidden;rotatable=0;points=[[0,0.5],[1,0.5]];portConstraint=eastwest;" parent="4j-1wQ6qazDUJGKftkid-28" vertex="1"><mxGeometry y="60" width="240" height="26" as="geometry"/></mxCell><mxCell id="4j-1wQ6qazDUJGKftkid-30" value="- restart(): void" style="text;align=left;verticalAlign=top;spacingLeft=4;spacingRight=4;overflow=hidden;rotatable=0;points=[[0,0.5],[1,0.5]];portConstraint=eastwest;" parent="WIyWlLk6GJQsqaUBKTNV-1" vertex="1"><mxGeometry x="570" y="140" width="240" height="26" as="geometry"/></mxCell><mxCell id="4j-1wQ6qazDUJGKftkid-32" value="Calculator" style="swimlane;fontStyle=2;align=center;verticalAlign=top;childLayout=stackLayout;horizontal=1;startSize=26;horizontalStack=0;resizeParent=1;resizeLast=0;collapsible=1;marginBottom=0;rounded=0;shadow=0;strokeWidth=1;" parent="WIyWlLk6GJQsqaUBKTNV-1" vertex="1"><mxGeometry x="630" y="398" width="240" height="138" as="geometry"><mxRectangle x="230" y="140" width="160" height="26" as="alternateBounds"/></mxGeometry></mxCell><mxCell id="4j-1wQ6qazDUJGKftkid-33" value="" style="line;html=1;strokeWidth=1;align=left;verticalAlign=middle;spacingTop=-1;spacingLeft=3;spacingRight=3;rotatable=0;labelPosition=right;points=[];portConstraint=eastwest;" parent="4j-1wQ6qazDUJGKftkid-32" vertex="1"><mxGeometry y="26" width="240" height="8" as="geometry"/></mxCell><mxCell id="4j-1wQ6qazDUJGKftkid-31" value="- highscoreUp(): void" style="text;align=left;verticalAlign=top;spacingLeft=4;spacingRight=4;overflow=hidden;rotatable=0;points=[[0,0.5],[1,0.5]];portConstraint=eastwest;" parent="4j-1wQ6qazDUJGKftkid-32" vertex="1"><mxGeometry y="34" width="240" height="26" as="geometry"/></mxCell><mxCell id="4j-1wQ6qazDUJGKftkid-34" value="PanelMovement" style="swimlane;fontStyle=2;align=center;verticalAlign=top;childLayout=stackLayout;horizontal=1;startSize=26;horizontalStack=0;resizeParent=1;resizeLast=0;collapsible=1;marginBottom=0;rounded=0;shadow=0;strokeWidth=1;" parent="WIyWlLk6GJQsqaUBKTNV-1" vertex="1"><mxGeometry x="-340" y="140" width="240" height="240" as="geometry"><mxRectangle x="230" y="140" width="160" height="26" as="alternateBounds"/></mxGeometry></mxCell><mxCell id="4j-1wQ6qazDUJGKftkid-35" value="" style="line;html=1;strokeWidth=1;align=left;verticalAlign=middle;spacingTop=-1;spacingLeft=3;spacingRight=3;rotatable=0;labelPosition=right;points=[];portConstraint=eastwest;" parent="4j-1wQ6qazDUJGKftkid-34" vertex="1"><mxGeometry y="26" width="240" height="8" as="geometry"/></mxCell><mxCell id="4j-1wQ6qazDUJGKftkid-20" value="- keyReleased(KeyEvent e): void" style="text;align=left;verticalAlign=top;spacingLeft=4;spacingRight=4;overflow=hidden;rotatable=0;points=[[0,0.5],[1,0.5]];portConstraint=eastwest;" parent="4j-1wQ6qazDUJGKftkid-34" vertex="1"><mxGeometry y="34" width="240" height="26" as="geometry"/></mxCell><mxCell id="4j-1wQ6qazDUJGKftkid-19" value="- keyTyped(KeyEvent e): void" style="text;align=left;verticalAlign=top;spacingLeft=4;spacingRight=4;overflow=hidden;rotatable=0;points=[[0,0.5],[1,0.5]];portConstraint=eastwest;" parent="4j-1wQ6qazDUJGKftkid-34" vertex="1"><mxGeometry y="60" width="240" height="26" as="geometry"/></mxCell><mxCell id="4j-1wQ6qazDUJGKftkid-18" value="- keyPressed(KeyEvent e): void" style="text;align=left;verticalAlign=top;spacingLeft=4;spacingRight=4;overflow=hidden;rotatable=0;points=[[0,0.5],[1,0.5]];portConstraint=eastwest;" parent="4j-1wQ6qazDUJGKftkid-34" vertex="1"><mxGeometry y="86" width="240" height="26" as="geometry"/></mxCell></root></mxGraphModel></diagram></mxfile>